<svg xmlns="http://www.w3.org/2000/svg" xmlns:xlink="http://www.w3.org/1999/xlink" width="534" zoomAndPan="magnify" viewBox="0 0 400.5 101.249998" height="135" preserveAspectRatio="xMidYMid meet" version="1.0"><defs><g/></defs><g fill="#ffffff" fill-opacity="1"><g transform="translate(16.214496, 54.226359)"><g><path d="M 10.203125 -28.3125 C 9.347656 -28.1875 8.484375 -27.960938 7.609375 -27.640625 C 6.734375 -27.316406 5.9375 -26.910156 5.21875 -26.421875 C 4.5 -25.929688 3.914062 -25.367188 3.46875 -24.734375 C 3.019531 -24.109375 2.796875 -23.429688 2.796875 -22.703125 C 2.796875 -22.148438 2.925781 -21.710938 3.1875 -21.390625 C 3.445312 -21.066406 3.722656 -20.789062 4.015625 -20.5625 C 4.304688 -20.332031 4.582031 -20.117188 4.84375 -19.921875 C 5.101562 -19.722656 5.234375 -19.5 5.234375 -19.25 C 5.234375 -18.914062 4.988281 -18.75 4.5 -18.75 C 3.800781 -18.75 3.148438 -19.09375 2.546875 -19.78125 C 1.953125 -20.46875 1.65625 -21.457031 1.65625 -22.75 C 1.65625 -23.757812 1.859375 -24.722656 2.265625 -25.640625 C 2.679688 -26.554688 3.269531 -27.351562 4.03125 -28.03125 C 4.800781 -28.707031 5.710938 -29.242188 6.765625 -29.640625 C 7.828125 -30.035156 9.019531 -30.234375 10.34375 -30.234375 C 11.039062 -30.234375 11.472656 -30.007812 11.640625 -29.5625 C 11.816406 -29.125 11.90625 -28.476562 11.90625 -27.625 C 11.90625 -26.082031 11.976562 -24.085938 12.125 -21.640625 C 12.28125 -19.191406 12.375 -16.601562 12.40625 -13.875 C 13.144531 -14.519531 13.828125 -15.203125 14.453125 -15.921875 C 15.078125 -16.640625 15.617188 -17.414062 16.078125 -18.25 C 16.328125 -18.707031 16.535156 -19.117188 16.703125 -19.484375 C 16.867188 -19.847656 17.078125 -20.03125 17.328125 -20.03125 C 17.597656 -20.03125 17.734375 -19.816406 17.734375 -19.390625 C 17.734375 -18.660156 17.585938 -17.972656 17.296875 -17.328125 C 17.003906 -16.679688 16.617188 -16.054688 16.140625 -15.453125 C 15.671875 -14.859375 15.113281 -14.285156 14.46875 -13.734375 C 13.832031 -13.179688 13.144531 -12.628906 12.40625 -12.078125 C 12.375 -9.390625 12.21875 -7.003906 11.9375 -4.921875 C 11.664062 -2.835938 11.238281 -1.082031 10.65625 0.34375 C 10.070312 1.769531 9.320312 2.859375 8.40625 3.609375 C 7.488281 4.359375 6.382812 4.734375 5.09375 4.734375 C 3.875 4.734375 2.90625 4.242188 2.1875 3.265625 C 1.46875 2.285156 1.109375 1.070312 1.109375 -0.375 C 1.109375 -1.71875 1.375 -2.914062 1.90625 -3.96875 C 2.445312 -5.03125 3.144531 -6.007812 4 -6.90625 C 4.851562 -7.8125 5.800781 -8.671875 6.84375 -9.484375 C 7.882812 -10.296875 8.925781 -11.101562 9.96875 -11.90625 C 10 -12.332031 10.015625 -12.773438 10.015625 -13.234375 C 10.015625 -13.691406 10.015625 -14.164062 10.015625 -14.65625 C 10.015625 -16.125 9.972656 -17.539062 9.890625 -18.90625 C 9.816406 -20.269531 9.78125 -21.625 9.78125 -22.96875 C 9.78125 -23.863281 9.8125 -24.753906 9.875 -25.640625 C 9.9375 -26.523438 10.046875 -27.414062 10.203125 -28.3125 Z M 2.15625 -0.375 C 2.15625 0.820312 2.398438 1.796875 2.890625 2.546875 C 3.378906 3.296875 4.113281 3.671875 5.09375 3.671875 C 6.78125 3.671875 7.984375 2.550781 8.703125 0.3125 C 9.421875 -1.914062 9.84375 -5.46875 9.96875 -10.34375 C 8.988281 -9.664062 8.03125 -8.96875 7.09375 -8.25 C 6.164062 -7.53125 5.332031 -6.765625 4.59375 -5.953125 C 3.863281 -5.140625 3.273438 -4.269531 2.828125 -3.34375 C 2.378906 -2.425781 2.15625 -1.4375 2.15625 -0.375 Z M 2.15625 -0.375 "/></g></g></g><g fill="#ffffff" fill-opacity="1"><g transform="translate(31.373542, 54.226359)"><g><path d="M 14.0625 -15.34375 C 14.0625 -14.644531 14.019531 -13.960938 13.9375 -13.296875 C 13.863281 -12.640625 13.773438 -11.921875 13.671875 -11.140625 C 13.566406 -10.359375 13.472656 -9.484375 13.390625 -8.515625 C 13.316406 -7.554688 13.28125 -6.40625 13.28125 -5.0625 C 13.28125 -3.800781 13.367188 -2.753906 13.546875 -1.921875 C 13.734375 -1.097656 14.085938 -0.6875 14.609375 -0.6875 C 15.253906 -0.6875 15.820312 -1.015625 16.3125 -1.671875 C 16.800781 -2.335938 17.210938 -3.0625 17.546875 -3.84375 C 17.890625 -4.625 18.191406 -5.34375 18.453125 -6 C 18.710938 -6.65625 18.929688 -6.984375 19.109375 -6.984375 C 19.265625 -6.984375 19.34375 -6.890625 19.34375 -6.703125 C 19.34375 -6.148438 19.203125 -5.46875 18.921875 -4.65625 C 18.648438 -3.851562 18.285156 -3.070312 17.828125 -2.3125 C 17.367188 -1.5625 16.835938 -0.925781 16.234375 -0.40625 C 15.640625 0.113281 15.023438 0.375 14.390625 0.375 C 13.984375 0.375 13.585938 0.328125 13.203125 0.234375 C 12.828125 0.140625 12.484375 -0.0703125 12.171875 -0.40625 C 11.867188 -0.75 11.609375 -1.234375 11.390625 -1.859375 C 11.179688 -2.484375 11.0625 -3.332031 11.03125 -4.40625 C 10.414062 -2.875 9.675781 -1.753906 8.8125 -1.046875 C 7.957031 -0.347656 7.085938 0 6.203125 0 C 5.410156 0 4.707031 -0.234375 4.09375 -0.703125 C 3.476562 -1.179688 2.960938 -1.8125 2.546875 -2.59375 C 2.140625 -3.375 1.832031 -4.269531 1.625 -5.28125 C 1.425781 -6.289062 1.328125 -7.332031 1.328125 -8.40625 C 1.328125 -9.632812 1.457031 -10.84375 1.71875 -12.03125 C 1.976562 -13.226562 2.359375 -14.296875 2.859375 -15.234375 C 3.367188 -16.171875 4.015625 -16.925781 4.796875 -17.5 C 5.578125 -18.082031 6.472656 -18.375 7.484375 -18.375 C 8.285156 -18.375 8.960938 -18.160156 9.515625 -17.734375 C 10.066406 -17.304688 10.617188 -16.570312 11.171875 -15.53125 C 11.410156 -16.789062 12.019531 -17.421875 13 -17.421875 C 13.3125 -17.421875 13.632812 -17.359375 13.96875 -17.234375 C 14 -16.898438 14.019531 -16.578125 14.03125 -16.265625 C 14.050781 -15.960938 14.0625 -15.65625 14.0625 -15.34375 Z M 3.859375 -8.046875 C 3.859375 -7.117188 3.921875 -6.234375 4.046875 -5.390625 C 4.171875 -4.554688 4.347656 -3.816406 4.578125 -3.171875 C 4.804688 -2.523438 5.09375 -2.007812 5.4375 -1.625 C 5.789062 -1.25 6.210938 -1.0625 6.703125 -1.0625 C 7.347656 -1.0625 7.914062 -1.3125 8.40625 -1.8125 C 8.894531 -2.320312 9.316406 -2.953125 9.671875 -3.703125 C 10.023438 -4.453125 10.289062 -5.273438 10.46875 -6.171875 C 10.65625 -7.078125 10.75 -7.929688 10.75 -8.734375 C 10.75 -9.617188 10.78125 -10.515625 10.84375 -11.421875 C 10.90625 -12.328125 10.984375 -13.222656 11.078125 -14.109375 C 10.460938 -15.242188 9.898438 -16.078125 9.390625 -16.609375 C 8.890625 -17.148438 8.316406 -17.421875 7.671875 -17.421875 C 7.054688 -17.421875 6.507812 -17.132812 6.03125 -16.5625 C 5.5625 -16 5.164062 -15.265625 4.84375 -14.359375 C 4.519531 -13.453125 4.273438 -12.445312 4.109375 -11.34375 C 3.941406 -10.25 3.859375 -9.148438 3.859375 -8.046875 Z M 3.859375 -8.046875 "/></g></g></g><g fill="#ffffff" fill-opacity="1"><g transform="translate(47.175694, 54.226359)"><g><path d="M 2.71875 -3.90625 C 2.5 -5.039062 2.328125 -6.289062 2.203125 -7.65625 C 2.078125 -9.019531 1.960938 -10.351562 1.859375 -11.65625 C 1.753906 -12.957031 1.613281 -14.179688 1.4375 -15.328125 C 1.269531 -16.472656 1.019531 -17.398438 0.6875 -18.109375 C 1.113281 -18.316406 1.539062 -18.421875 1.96875 -18.421875 C 2.488281 -18.421875 2.894531 -18.160156 3.1875 -17.640625 C 3.476562 -17.117188 3.691406 -16.4375 3.828125 -15.59375 C 3.972656 -14.757812 4.066406 -13.804688 4.109375 -12.734375 C 4.160156 -11.660156 4.1875 -10.570312 4.1875 -9.46875 C 4.332031 -10.71875 4.539062 -11.898438 4.8125 -13.015625 C 5.09375 -14.140625 5.410156 -15.113281 5.765625 -15.9375 C 6.117188 -16.769531 6.5 -17.421875 6.90625 -17.890625 C 7.320312 -18.367188 7.742188 -18.609375 8.171875 -18.609375 C 8.722656 -18.609375 9.210938 -18.410156 9.640625 -18.015625 C 10.078125 -17.617188 10.441406 -17.128906 10.734375 -16.546875 C 11.023438 -15.960938 11.242188 -15.332031 11.390625 -14.65625 C 11.546875 -13.976562 11.625 -13.351562 11.625 -12.78125 C 11.625 -12.226562 11.492188 -11.757812 11.234375 -11.375 C 10.972656 -10.988281 10.613281 -10.796875 10.15625 -10.796875 C 10 -10.796875 9.851562 -10.8125 9.71875 -10.84375 C 9.582031 -10.875 9.4375 -10.921875 9.28125 -10.984375 C 9.28125 -11.660156 9.269531 -12.378906 9.25 -13.140625 C 9.238281 -13.910156 9.191406 -14.613281 9.109375 -15.25 C 9.035156 -15.894531 8.929688 -16.425781 8.796875 -16.84375 C 8.660156 -17.257812 8.453125 -17.46875 8.171875 -17.46875 C 7.898438 -17.46875 7.617188 -17.242188 7.328125 -16.796875 C 7.035156 -16.347656 6.75 -15.765625 6.46875 -15.046875 C 6.195312 -14.328125 5.9375 -13.492188 5.6875 -12.546875 C 5.445312 -11.597656 5.234375 -10.625 5.046875 -9.625 C 4.867188 -8.632812 4.722656 -7.640625 4.609375 -6.640625 C 4.503906 -5.640625 4.453125 -4.742188 4.453125 -3.953125 C 4.453125 -2.972656 4.535156 -2.175781 4.703125 -1.5625 C 4.878906 -0.945312 5.179688 -0.640625 5.609375 -0.640625 C 5.878906 -0.640625 6.117188 -0.722656 6.328125 -0.890625 C 6.546875 -1.066406 6.734375 -1.257812 6.890625 -1.46875 C 7.046875 -1.6875 7.195312 -1.878906 7.34375 -2.046875 C 7.5 -2.210938 7.65625 -2.296875 7.8125 -2.296875 C 8 -2.296875 8.09375 -2.1875 8.09375 -1.96875 C 8.09375 -1.726562 8.015625 -1.460938 7.859375 -1.171875 C 7.703125 -0.878906 7.5 -0.609375 7.25 -0.359375 C 7.007812 -0.117188 6.734375 0.0703125 6.421875 0.21875 C 6.117188 0.375 5.800781 0.453125 5.46875 0.453125 C 4.726562 0.453125 4.144531 0.0507812 3.71875 -0.75 C 3.289062 -1.5625 2.957031 -2.613281 2.71875 -3.90625 Z M 2.71875 -3.90625 "/></g></g></g><g fill="#ffffff" fill-opacity="1"><g transform="translate(59.348863, 54.226359)"><g><path d="M 16.171875 -23.390625 C 16.171875 -22.347656 16.109375 -21.3125 15.984375 -20.28125 C 15.867188 -19.257812 15.679688 -18.28125 15.421875 -17.34375 C 15.160156 -16.414062 14.84375 -15.550781 14.46875 -14.75 C 14.101562 -13.957031 13.691406 -13.285156 13.234375 -12.734375 C 13.234375 -11.140625 13.25 -9.613281 13.28125 -8.15625 C 13.3125 -6.695312 13.375 -5.414062 13.46875 -4.3125 C 13.5625 -3.21875 13.695312 -2.335938 13.875 -1.671875 C 14.0625 -1.015625 14.304688 -0.6875 14.609375 -0.6875 C 15.253906 -0.6875 15.820312 -1.015625 16.3125 -1.671875 C 16.800781 -2.335938 17.210938 -3.0625 17.546875 -3.84375 C 17.890625 -4.625 18.191406 -5.34375 18.453125 -6 C 18.710938 -6.65625 18.929688 -6.984375 19.109375 -6.984375 C 19.265625 -6.984375 19.34375 -6.890625 19.34375 -6.703125 C 19.34375 -6.148438 19.21875 -5.46875 18.96875 -4.65625 C 18.726562 -3.851562 18.382812 -3.070312 17.9375 -2.3125 C 17.5 -1.5625 16.972656 -0.925781 16.359375 -0.40625 C 15.742188 0.113281 15.085938 0.375 14.390625 0.375 C 13.984375 0.375 13.585938 0.328125 13.203125 0.234375 C 12.828125 0.140625 12.484375 -0.0703125 12.171875 -0.40625 C 11.867188 -0.75 11.609375 -1.234375 11.390625 -1.859375 C 11.179688 -2.484375 11.0625 -3.332031 11.03125 -4.40625 C 10.414062 -2.875 9.71875 -1.753906 8.9375 -1.046875 C 8.15625 -0.347656 7.320312 0 6.4375 0 C 5.519531 0 4.726562 -0.21875 4.0625 -0.65625 C 3.40625 -1.101562 2.863281 -1.703125 2.4375 -2.453125 C 2.007812 -3.203125 1.6875 -4.066406 1.46875 -5.046875 C 1.257812 -6.035156 1.15625 -7.050781 1.15625 -8.09375 C 1.15625 -9.3125 1.289062 -10.535156 1.5625 -11.765625 C 1.832031 -12.992188 2.234375 -14.097656 2.765625 -15.078125 C 3.304688 -16.054688 3.96875 -16.847656 4.75 -17.453125 C 5.53125 -18.066406 6.414062 -18.375 7.40625 -18.375 C 7.914062 -18.375 8.453125 -18.242188 9.015625 -17.984375 C 9.585938 -17.722656 10.179688 -17.289062 10.796875 -16.6875 C 10.859375 -18.882812 10.9375 -21.03125 11.03125 -23.125 C 11.125 -25.226562 11.242188 -27.320312 11.390625 -29.40625 C 11.453125 -30.050781 11.578125 -30.492188 11.765625 -30.734375 C 11.953125 -30.984375 12.257812 -31.109375 12.6875 -31.109375 C 13.300781 -31.109375 13.828125 -30.898438 14.265625 -30.484375 C 14.710938 -30.078125 15.070312 -29.519531 15.34375 -28.8125 C 15.625 -28.101562 15.832031 -27.28125 15.96875 -26.34375 C 16.101562 -25.414062 16.171875 -24.429688 16.171875 -23.390625 Z M 10.515625 -11.296875 C 9.453125 -11.296875 8.566406 -11.820312 7.859375 -12.875 C 7.148438 -13.9375 6.765625 -15.34375 6.703125 -17.09375 C 6.210938 -16.820312 5.785156 -16.363281 5.421875 -15.71875 C 5.054688 -15.070312 4.75 -14.328125 4.5 -13.484375 C 4.257812 -12.640625 4.066406 -11.734375 3.921875 -10.765625 C 3.785156 -9.804688 3.71875 -8.851562 3.71875 -7.90625 C 3.71875 -7.019531 3.78125 -6.160156 3.90625 -5.328125 C 4.03125 -4.503906 4.210938 -3.773438 4.453125 -3.140625 C 4.703125 -2.515625 5.007812 -2.007812 5.375 -1.625 C 5.738281 -1.25 6.179688 -1.0625 6.703125 -1.0625 C 7.347656 -1.0625 7.914062 -1.3125 8.40625 -1.8125 C 8.894531 -2.320312 9.316406 -2.953125 9.671875 -3.703125 C 10.023438 -4.453125 10.289062 -5.273438 10.46875 -6.171875 C 10.65625 -7.078125 10.75 -7.929688 10.75 -8.734375 L 10.75 -11.296875 Z M 13.328125 -30.28125 C 13.328125 -29.820312 13.316406 -29.039062 13.296875 -27.9375 C 13.285156 -26.832031 13.28125 -25.546875 13.28125 -24.078125 C 13.28125 -22.609375 13.269531 -21.007812 13.25 -19.28125 C 13.238281 -17.550781 13.234375 -15.8125 13.234375 -14.0625 C 13.910156 -15.132812 14.414062 -16.503906 14.75 -18.171875 C 15.082031 -19.835938 15.25 -21.546875 15.25 -23.296875 C 15.25 -24.117188 15.210938 -24.921875 15.140625 -25.703125 C 15.066406 -26.484375 14.941406 -27.179688 14.765625 -27.796875 C 14.597656 -28.410156 14.398438 -28.929688 14.171875 -29.359375 C 13.941406 -29.785156 13.660156 -30.09375 13.328125 -30.28125 Z M 10.75 -12.21875 C 10.75 -12.738281 10.75 -13.25 10.75 -13.75 C 10.75 -14.257812 10.765625 -14.773438 10.796875 -15.296875 C 9.691406 -16.710938 8.679688 -17.421875 7.765625 -17.421875 C 7.703125 -17.421875 7.644531 -17.410156 7.59375 -17.390625 C 7.550781 -17.378906 7.5 -17.375 7.4375 -17.375 C 7.46875 -16.664062 7.5625 -15.992188 7.71875 -15.359375 C 7.875 -14.734375 8.085938 -14.191406 8.359375 -13.734375 C 8.640625 -13.273438 8.960938 -12.90625 9.328125 -12.625 C 9.691406 -12.351562 10.085938 -12.21875 10.515625 -12.21875 Z M 10.75 -12.21875 "/></g></g></g><g fill="#ffffff" fill-opacity="1"><g transform="translate(75.656323, 54.226359)"><g><path d="M 4.234375 -9.65625 C 4.234375 -8.457031 4.273438 -7.328125 4.359375 -6.265625 C 4.453125 -5.210938 4.597656 -4.285156 4.796875 -3.484375 C 4.992188 -2.691406 5.242188 -2.066406 5.546875 -1.609375 C 5.859375 -1.148438 6.226562 -0.921875 6.65625 -0.921875 C 7.332031 -0.921875 7.847656 -1.296875 8.203125 -2.046875 C 8.554688 -2.796875 8.835938 -3.617188 9.046875 -4.515625 C 9.265625 -5.421875 9.441406 -6.25 9.578125 -7 C 9.710938 -7.757812 9.90625 -8.140625 10.15625 -8.140625 C 10.34375 -8.140625 10.4375 -7.984375 10.4375 -7.671875 C 10.4375 -7.117188 10.378906 -6.421875 10.265625 -5.578125 C 10.160156 -4.734375 9.960938 -3.90625 9.671875 -3.09375 C 9.378906 -2.289062 8.988281 -1.597656 8.5 -1.015625 C 8.007812 -0.429688 7.382812 -0.140625 6.625 -0.140625 C 5.757812 -0.140625 5.015625 -0.457031 4.390625 -1.09375 C 3.765625 -1.738281 3.25 -2.582031 2.84375 -3.625 C 2.445312 -4.664062 2.15625 -5.820312 1.96875 -7.09375 C 1.789062 -8.363281 1.703125 -9.644531 1.703125 -10.9375 C 1.703125 -11.945312 1.753906 -12.90625 1.859375 -13.8125 C 1.960938 -14.71875 2.125 -15.5 2.34375 -16.15625 C 2.5625 -16.8125 2.820312 -17.335938 3.125 -17.734375 C 3.425781 -18.128906 3.78125 -18.328125 4.1875 -18.328125 C 4.332031 -18.328125 4.488281 -18.3125 4.65625 -18.28125 C 4.832031 -18.257812 4.992188 -18.21875 5.140625 -18.15625 C 4.535156 -15.425781 4.234375 -12.59375 4.234375 -9.65625 Z M 3.859375 -20.859375 C 3.066406 -20.859375 2.671875 -21.257812 2.671875 -22.0625 C 2.671875 -23.070312 2.957031 -24.300781 3.53125 -25.75 C 4.113281 -27.207031 4.757812 -28.640625 5.46875 -30.046875 C 5.65625 -30.140625 5.851562 -30.1875 6.0625 -30.1875 C 6.40625 -30.1875 6.664062 -30.054688 6.84375 -29.796875 C 7.03125 -29.535156 7.125 -29.222656 7.125 -28.859375 C 7.125 -28.429688 7.023438 -27.898438 6.828125 -27.265625 C 6.628906 -26.640625 6.367188 -25.972656 6.046875 -25.265625 C 5.722656 -24.566406 5.367188 -23.832031 4.984375 -23.0625 C 4.597656 -22.300781 4.222656 -21.566406 3.859375 -20.859375 Z M 3.859375 -20.859375 "/></g></g></g><g fill="#ffffff" fill-opacity="1"><g transform="translate(82.546797, 54.226359)"><g><path d="M 1.75 -8.828125 C 1.75 -9.953125 1.78125 -11.054688 1.84375 -12.140625 C 1.90625 -13.234375 2.003906 -14.207031 2.140625 -15.0625 C 2.273438 -15.925781 2.460938 -16.617188 2.703125 -17.140625 C 2.953125 -17.660156 3.257812 -17.921875 3.625 -17.921875 C 3.875 -17.921875 4.195312 -17.8125 4.59375 -17.59375 C 4.4375 -16.613281 4.335938 -15.632812 4.296875 -14.65625 C 4.253906 -13.675781 4.234375 -12.695312 4.234375 -11.71875 C 4.234375 -11.226562 4.234375 -10.753906 4.234375 -10.296875 C 4.234375 -9.835938 4.25 -9.363281 4.28125 -8.875 C 4.550781 -9.851562 4.890625 -10.882812 5.296875 -11.96875 C 5.710938 -13.0625 6.171875 -14.066406 6.671875 -14.984375 C 7.179688 -15.898438 7.726562 -16.65625 8.3125 -17.25 C 8.894531 -17.851562 9.507812 -18.15625 10.15625 -18.15625 C 10.914062 -18.15625 11.535156 -17.9375 12.015625 -17.5 C 12.492188 -17.070312 12.867188 -16.515625 13.140625 -15.828125 C 13.421875 -15.140625 13.601562 -14.363281 13.6875 -13.5 C 13.78125 -12.644531 13.828125 -11.773438 13.828125 -10.890625 C 13.828125 -10.035156 13.789062 -9.144531 13.71875 -8.21875 C 13.644531 -7.300781 13.609375 -6.476562 13.609375 -5.75 C 13.609375 -5.195312 13.617188 -4.660156 13.640625 -4.140625 C 13.671875 -3.617188 13.734375 -3.148438 13.828125 -2.734375 C 13.921875 -2.316406 14.039062 -1.984375 14.1875 -1.734375 C 14.34375 -1.492188 14.53125 -1.375 14.75 -1.375 C 15.394531 -1.375 15.953125 -1.703125 16.421875 -2.359375 C 16.898438 -3.023438 17.316406 -3.75 17.671875 -4.53125 C 18.023438 -5.3125 18.332031 -6.03125 18.59375 -6.6875 C 18.851562 -7.34375 19.070312 -7.671875 19.25 -7.671875 C 19.40625 -7.671875 19.484375 -7.566406 19.484375 -7.359375 C 19.484375 -6.890625 19.34375 -6.257812 19.0625 -5.46875 C 18.789062 -4.675781 18.425781 -3.898438 17.96875 -3.140625 C 17.507812 -2.390625 16.972656 -1.734375 16.359375 -1.171875 C 15.742188 -0.609375 15.113281 -0.328125 14.46875 -0.328125 C 13.738281 -0.328125 13.15625 -0.5625 12.71875 -1.03125 C 12.289062 -1.507812 11.960938 -2.128906 11.734375 -2.890625 C 11.503906 -3.660156 11.351562 -4.507812 11.28125 -5.4375 C 11.207031 -6.375 11.171875 -7.300781 11.171875 -8.21875 C 11.171875 -8.738281 11.175781 -9.242188 11.1875 -9.734375 C 11.207031 -10.234375 11.21875 -10.695312 11.21875 -11.125 C 11.21875 -11.820312 11.203125 -12.515625 11.171875 -13.203125 C 11.140625 -13.898438 11.078125 -14.53125 10.984375 -15.09375 C 10.890625 -15.664062 10.75 -16.125 10.5625 -16.46875 C 10.382812 -16.820312 10.140625 -17 9.828125 -17 C 9.335938 -17 8.769531 -16.539062 8.125 -15.625 C 7.488281 -14.707031 6.878906 -13.554688 6.296875 -12.171875 C 5.710938 -10.796875 5.226562 -9.3125 4.84375 -7.71875 C 4.46875 -6.125 4.28125 -4.65625 4.28125 -3.3125 C 4.28125 -2.414062 4.207031 -1.671875 4.0625 -1.078125 C 3.925781 -0.484375 3.550781 -0.1875 2.9375 -0.1875 C 2.695312 -0.1875 2.40625 -0.234375 2.0625 -0.328125 C 2.0625 -0.503906 2.046875 -0.859375 2.015625 -1.390625 C 1.984375 -1.929688 1.945312 -2.59375 1.90625 -3.375 C 1.863281 -4.15625 1.828125 -5.015625 1.796875 -5.953125 C 1.765625 -6.890625 1.75 -7.847656 1.75 -8.828125 Z M 1.75 -8.828125 "/></g></g></g><g fill="#ffffff" fill-opacity="1"><g transform="translate(98.303022, 54.226359)"><g/></g></g><g fill="#ffffff" fill-opacity="1"><g transform="translate(109.787141, 54.226359)"><g><path d="M 16.171875 -23.390625 C 16.171875 -22.347656 16.109375 -21.3125 15.984375 -20.28125 C 15.867188 -19.257812 15.679688 -18.28125 15.421875 -17.34375 C 15.160156 -16.414062 14.84375 -15.550781 14.46875 -14.75 C 14.101562 -13.957031 13.691406 -13.285156 13.234375 -12.734375 C 13.234375 -11.140625 13.25 -9.613281 13.28125 -8.15625 C 13.3125 -6.695312 13.375 -5.414062 13.46875 -4.3125 C 13.5625 -3.21875 13.695312 -2.335938 13.875 -1.671875 C 14.0625 -1.015625 14.304688 -0.6875 14.609375 -0.6875 C 15.253906 -0.6875 15.820312 -1.015625 16.3125 -1.671875 C 16.800781 -2.335938 17.210938 -3.0625 17.546875 -3.84375 C 17.890625 -4.625 18.191406 -5.34375 18.453125 -6 C 18.710938 -6.65625 18.929688 -6.984375 19.109375 -6.984375 C 19.265625 -6.984375 19.34375 -6.890625 19.34375 -6.703125 C 19.34375 -6.148438 19.21875 -5.46875 18.96875 -4.65625 C 18.726562 -3.851562 18.382812 -3.070312 17.9375 -2.3125 C 17.5 -1.5625 16.972656 -0.925781 16.359375 -0.40625 C 15.742188 0.113281 15.085938 0.375 14.390625 0.375 C 13.984375 0.375 13.585938 0.328125 13.203125 0.234375 C 12.828125 0.140625 12.484375 -0.0703125 12.171875 -0.40625 C 11.867188 -0.75 11.609375 -1.234375 11.390625 -1.859375 C 11.179688 -2.484375 11.0625 -3.332031 11.03125 -4.40625 C 10.414062 -2.875 9.71875 -1.753906 8.9375 -1.046875 C 8.15625 -0.347656 7.320312 0 6.4375 0 C 5.519531 0 4.726562 -0.21875 4.0625 -0.65625 C 3.40625 -1.101562 2.863281 -1.703125 2.4375 -2.453125 C 2.007812 -3.203125 1.6875 -4.066406 1.46875 -5.046875 C 1.257812 -6.035156 1.15625 -7.050781 1.15625 -8.09375 C 1.15625 -9.3125 1.289062 -10.535156 1.5625 -11.765625 C 1.832031 -12.992188 2.234375 -14.097656 2.765625 -15.078125 C 3.304688 -16.054688 3.96875 -16.847656 4.75 -17.453125 C 5.53125 -18.066406 6.414062 -18.375 7.40625 -18.375 C 7.914062 -18.375 8.453125 -18.242188 9.015625 -17.984375 C 9.585938 -17.722656 10.179688 -17.289062 10.796875 -16.6875 C 10.859375 -18.882812 10.9375 -21.03125 11.03125 -23.125 C 11.125 -25.226562 11.242188 -27.320312 11.390625 -29.40625 C 11.453125 -30.050781 11.578125 -30.492188 11.765625 -30.734375 C 11.953125 -30.984375 12.257812 -31.109375 12.6875 -31.109375 C 13.300781 -31.109375 13.828125 -30.898438 14.265625 -30.484375 C 14.710938 -30.078125 15.070312 -29.519531 15.34375 -28.8125 C 15.625 -28.101562 15.832031 -27.28125 15.96875 -26.34375 C 16.101562 -25.414062 16.171875 -24.429688 16.171875 -23.390625 Z M 10.515625 -11.296875 C 9.453125 -11.296875 8.566406 -11.820312 7.859375 -12.875 C 7.148438 -13.9375 6.765625 -15.34375 6.703125 -17.09375 C 6.210938 -16.820312 5.785156 -16.363281 5.421875 -15.71875 C 5.054688 -15.070312 4.75 -14.328125 4.5 -13.484375 C 4.257812 -12.640625 4.066406 -11.734375 3.921875 -10.765625 C 3.785156 -9.804688 3.71875 -8.851562 3.71875 -7.90625 C 3.71875 -7.019531 3.78125 -6.160156 3.90625 -5.328125 C 4.03125 -4.503906 4.210938 -3.773438 4.453125 -3.140625 C 4.703125 -2.515625 5.007812 -2.007812 5.375 -1.625 C 5.738281 -1.25 6.179688 -1.0625 6.703125 -1.0625 C 7.347656 -1.0625 7.914062 -1.3125 8.40625 -1.8125 C 8.894531 -2.320312 9.316406 -2.953125 9.671875 -3.703125 C 10.023438 -4.453125 10.289062 -5.273438 10.46875 -6.171875 C 10.65625 -7.078125 10.75 -7.929688 10.75 -8.734375 L 10.75 -11.296875 Z M 13.328125 -30.28125 C 13.328125 -29.820312 13.316406 -29.039062 13.296875 -27.9375 C 13.285156 -26.832031 13.28125 -25.546875 13.28125 -24.078125 C 13.28125 -22.609375 13.269531 -21.007812 13.25 -19.28125 C 13.238281 -17.550781 13.234375 -15.8125 13.234375 -14.0625 C 13.910156 -15.132812 14.414062 -16.503906 14.75 -18.171875 C 15.082031 -19.835938 15.25 -21.546875 15.25 -23.296875 C 15.25 -24.117188 15.210938 -24.921875 15.140625 -25.703125 C 15.066406 -26.484375 14.941406 -27.179688 14.765625 -27.796875 C 14.597656 -28.410156 14.398438 -28.929688 14.171875 -29.359375 C 13.941406 -29.785156 13.660156 -30.09375 13.328125 -30.28125 Z M 10.75 -12.21875 C 10.75 -12.738281 10.75 -13.25 10.75 -13.75 C 10.75 -14.257812 10.765625 -14.773438 10.796875 -15.296875 C 9.691406 -16.710938 8.679688 -17.421875 7.765625 -17.421875 C 7.703125 -17.421875 7.644531 -17.410156 7.59375 -17.390625 C 7.550781 -17.378906 7.5 -17.375 7.4375 -17.375 C 7.46875 -16.664062 7.5625 -15.992188 7.71875 -15.359375 C 7.875 -14.734375 8.085938 -14.191406 8.359375 -13.734375 C 8.640625 -13.273438 8.960938 -12.90625 9.328125 -12.625 C 9.691406 -12.351562 10.085938 -12.21875 10.515625 -12.21875 Z M 10.75 -12.21875 "/></g></g></g><g fill="#ffffff" fill-opacity="1"><g transform="translate(126.094601, 54.226359)"><g><path d="M 11.671875 -14.84375 C 11.671875 -13.957031 11.476562 -13 11.09375 -11.96875 C 10.707031 -10.945312 10.1875 -9.96875 9.53125 -9.03125 C 8.875 -8.09375 8.09375 -7.265625 7.1875 -6.546875 C 6.289062 -5.828125 5.332031 -5.34375 4.3125 -5.09375 C 4.625 -4.03125 5.113281 -3.109375 5.78125 -2.328125 C 6.457031 -1.546875 7.488281 -1.15625 8.875 -1.15625 C 10 -1.15625 10.9375 -1.5 11.6875 -2.1875 C 12.445312 -2.875 13.070312 -3.628906 13.5625 -4.453125 C 14.050781 -5.285156 14.445312 -6.046875 14.75 -6.734375 C 15.050781 -7.421875 15.3125 -7.765625 15.53125 -7.765625 C 15.6875 -7.765625 15.765625 -7.671875 15.765625 -7.484375 C 15.765625 -6.929688 15.617188 -6.242188 15.328125 -5.421875 C 15.035156 -4.597656 14.601562 -3.8125 14.03125 -3.0625 C 13.46875 -2.3125 12.75 -1.664062 11.875 -1.125 C 11 -0.59375 9.96875 -0.328125 8.78125 -0.328125 C 7.425781 -0.328125 6.28125 -0.539062 5.34375 -0.96875 C 4.414062 -1.394531 3.660156 -1.96875 3.078125 -2.6875 C 2.492188 -3.40625 2.070312 -4.234375 1.8125 -5.171875 C 1.550781 -6.109375 1.421875 -7.082031 1.421875 -8.09375 C 1.421875 -9.28125 1.585938 -10.472656 1.921875 -11.671875 C 2.265625 -12.867188 2.742188 -13.941406 3.359375 -14.890625 C 3.972656 -15.835938 4.695312 -16.609375 5.53125 -17.203125 C 6.375 -17.804688 7.316406 -18.109375 8.359375 -18.109375 C 9.523438 -18.109375 10.367188 -17.789062 10.890625 -17.15625 C 11.410156 -16.53125 11.671875 -15.757812 11.671875 -14.84375 Z M 4.1875 -5.875 C 5.039062 -6.15625 5.78125 -6.640625 6.40625 -7.328125 C 7.039062 -8.015625 7.5625 -8.796875 7.96875 -9.671875 C 8.382812 -10.546875 8.691406 -11.445312 8.890625 -12.375 C 9.085938 -13.3125 9.1875 -14.148438 9.1875 -14.890625 C 9.1875 -15.566406 9.09375 -16.15625 8.90625 -16.65625 C 8.726562 -17.164062 8.472656 -17.421875 8.140625 -17.421875 C 7.585938 -17.421875 7.054688 -17.117188 6.546875 -16.515625 C 6.046875 -15.921875 5.609375 -15.160156 5.234375 -14.234375 C 4.867188 -13.316406 4.570312 -12.289062 4.34375 -11.15625 C 4.113281 -10.03125 4 -8.929688 4 -7.859375 C 4 -7.523438 4.015625 -7.1875 4.046875 -6.84375 C 4.078125 -6.507812 4.125 -6.1875 4.1875 -5.875 Z M 4.1875 -5.875 "/></g></g></g><g fill="#ffb0be" fill-opacity="1"><g transform="translate(148.505711, 59.031632)"><g><path d="M 5.15625 -0.1875 C 4.957031 -0.101562 4.71875 -0.03125 4.4375 0.03125 C 4.15625 0.09375 3.9375 0.125 3.78125 0.125 C 3.257812 0.125 3 -0.253906 3 -1.015625 C 3 -3.816406 3 -6.757812 3 -9.84375 C 3 -12.925781 2.988281 -16.054688 2.96875 -19.234375 C 2.945312 -22.410156 2.925781 -25.585938 2.90625 -28.765625 C 2.882812 -31.953125 2.875 -35.007812 2.875 -37.9375 C 3.195312 -38.207031 3.617188 -38.421875 4.140625 -38.578125 C 4.660156 -38.742188 5.117188 -38.828125 5.515625 -38.828125 C 5.921875 -38.828125 6.300781 -38.738281 6.65625 -38.5625 C 7.019531 -38.382812 7.320312 -38.070312 7.5625 -37.625 C 8.84375 -35.1875 10.222656 -32.566406 11.703125 -29.765625 C 13.179688 -26.960938 14.703125 -24.082031 16.265625 -21.125 C 17.828125 -18.164062 19.394531 -15.175781 20.96875 -12.15625 C 22.550781 -9.132812 24.125 -6.179688 25.6875 -3.296875 C 25.6875 -8.460938 25.675781 -13.953125 25.65625 -19.765625 C 25.632812 -25.585938 25.625 -31.800781 25.625 -38.40625 C 25.78125 -38.488281 25.988281 -38.539062 26.25 -38.5625 C 26.507812 -38.582031 26.703125 -38.59375 26.828125 -38.59375 C 27.503906 -38.59375 27.84375 -38.234375 27.84375 -37.515625 C 27.84375 -31.585938 27.820312 -25.550781 27.78125 -19.40625 C 27.75 -13.269531 27.734375 -6.878906 27.734375 -0.234375 C 27.410156 -0.078125 27.046875 0.03125 26.640625 0.09375 C 26.242188 0.15625 25.882812 0.1875 25.5625 0.1875 C 25 0.1875 24.476562 0.046875 24 -0.234375 C 23.519531 -0.515625 23.125 -0.9375 22.8125 -1.5 C 21.25 -4.414062 19.664062 -7.375 18.0625 -10.375 C 16.46875 -13.382812 14.898438 -16.335938 13.359375 -19.234375 C 11.816406 -22.140625 10.34375 -24.921875 8.9375 -27.578125 C 7.539062 -30.234375 6.242188 -32.679688 5.046875 -34.921875 C 5.046875 -29.523438 5.0625 -23.894531 5.09375 -18.03125 C 5.132812 -12.175781 5.15625 -6.226562 5.15625 -0.1875 Z M 5.15625 -0.1875 "/></g></g></g><g fill="#ffb0be" fill-opacity="1"><g transform="translate(179.409727, 59.031632)"><g><path d="M 17.703125 -1.5 C 19.265625 -1.5 20.65625 -1.796875 21.875 -2.390625 C 23.09375 -2.992188 24.140625 -3.804688 25.015625 -4.828125 C 25.898438 -5.847656 26.625 -7.054688 27.1875 -8.453125 C 27.75 -9.859375 28.171875 -11.34375 28.453125 -12.90625 C 27.453125 -12.46875 26.3125 -12.25 25.03125 -12.25 C 22.789062 -12.25 20.859375 -12.765625 19.234375 -13.796875 C 17.609375 -14.835938 16.265625 -16.175781 15.203125 -17.8125 C 14.148438 -19.457031 13.375 -21.28125 12.875 -23.28125 C 12.375 -25.28125 12.125 -27.242188 12.125 -29.171875 C 12.125 -30.566406 12.265625 -31.882812 12.546875 -33.125 C 12.828125 -34.363281 13.265625 -35.441406 13.859375 -36.359375 C 14.460938 -37.285156 15.210938 -38.03125 16.109375 -38.59375 C 17.015625 -39.15625 18.085938 -39.4375 19.328125 -39.4375 C 20.765625 -39.4375 22.253906 -38.984375 23.796875 -38.078125 C 25.335938 -37.179688 26.738281 -35.84375 28 -34.0625 C 29.257812 -32.28125 30.296875 -30.035156 31.109375 -27.328125 C 31.929688 -24.628906 32.34375 -21.484375 32.34375 -17.890625 C 32.34375 -15.609375 32.050781 -13.382812 31.46875 -11.21875 C 30.894531 -9.0625 30.003906 -7.140625 28.796875 -5.453125 C 27.597656 -3.773438 26.078125 -2.4375 24.234375 -1.4375 C 22.398438 -0.4375 20.222656 0.0625 17.703125 0.0625 C 14.898438 0.0625 12.554688 -0.503906 10.671875 -1.640625 C 8.796875 -2.785156 7.285156 -4.273438 6.140625 -6.109375 C 5.003906 -7.953125 4.207031 -10.023438 3.75 -12.328125 C 3.289062 -14.628906 3.0625 -16.941406 3.0625 -19.265625 C 3.0625 -21.304688 3.210938 -23.273438 3.515625 -25.171875 C 3.816406 -27.078125 4.207031 -28.769531 4.6875 -30.25 C 5.164062 -31.726562 5.703125 -32.90625 6.296875 -33.78125 C 6.898438 -34.664062 7.503906 -35.109375 8.109375 -35.109375 C 8.617188 -35.109375 9.015625 -34.867188 9.296875 -34.390625 C 8.898438 -33.546875 8.519531 -32.539062 8.15625 -31.375 C 7.800781 -30.21875 7.492188 -28.96875 7.234375 -27.625 C 6.972656 -26.289062 6.769531 -24.882812 6.625 -23.40625 C 6.488281 -21.925781 6.421875 -20.445312 6.421875 -18.96875 C 6.421875 -16.769531 6.609375 -14.617188 6.984375 -12.515625 C 7.367188 -10.410156 8 -8.546875 8.875 -6.921875 C 9.757812 -5.304688 10.921875 -4 12.359375 -3 C 13.804688 -2 15.585938 -1.5 17.703125 -1.5 Z M 25.03125 -13.5 C 26.269531 -13.5 27.488281 -13.800781 28.6875 -14.40625 C 28.8125 -15.488281 28.875 -16.609375 28.875 -17.765625 C 28.875 -21.203125 28.570312 -24.179688 27.96875 -26.703125 C 27.363281 -29.222656 26.601562 -31.320312 25.6875 -33 C 24.769531 -34.6875 23.738281 -35.9375 22.59375 -36.75 C 21.457031 -37.570312 20.347656 -37.984375 19.265625 -37.984375 C 18.546875 -37.984375 17.925781 -37.742188 17.40625 -37.265625 C 16.882812 -36.785156 16.453125 -36.132812 16.109375 -35.3125 C 15.773438 -34.5 15.515625 -33.570312 15.328125 -32.53125 C 15.148438 -31.488281 15.0625 -30.40625 15.0625 -29.28125 C 15.0625 -27.488281 15.28125 -25.660156 15.71875 -23.796875 C 16.164062 -21.929688 16.804688 -20.238281 17.640625 -18.71875 C 18.484375 -17.195312 19.523438 -15.945312 20.765625 -14.96875 C 22.003906 -13.988281 23.425781 -13.5 25.03125 -13.5 Z M 25.03125 -13.5 "/></g></g></g><g fill="#ffb0be" fill-opacity="1"><g transform="translate(213.31413, 59.031632)"><g><path d="M 32.171875 -0.546875 C 31.410156 0.015625 30.707031 0.296875 30.0625 0.296875 C 29.1875 0.296875 28.566406 -0.179688 28.203125 -1.140625 C 27.203125 -3.617188 26.25 -6.097656 25.34375 -8.578125 C 24.445312 -11.054688 23.5625 -13.554688 22.6875 -16.078125 C 20.6875 -16.078125 18.65625 -16.085938 16.59375 -16.109375 C 14.53125 -16.128906 12.300781 -16.140625 9.90625 -16.140625 C 8.863281 -13.503906 7.820312 -10.90625 6.78125 -8.34375 C 5.738281 -5.78125 4.71875 -3.421875 3.71875 -1.265625 C 3.5625 -0.898438 3.34375 -0.578125 3.0625 -0.296875 C 2.78125 -0.015625 2.398438 0.125 1.921875 0.125 C 1.765625 0.125 1.5625 0.113281 1.3125 0.09375 C 1.070312 0.0703125 0.851562 0.0195312 0.65625 -0.0625 C 0.9375 -0.5 1.1875 -0.9375 1.40625 -1.375 C 1.625 -1.820312 1.835938 -2.242188 2.046875 -2.640625 C 3.003906 -4.796875 4.070312 -7.316406 5.25 -10.203125 C 6.425781 -13.085938 7.632812 -16.148438 8.875 -19.390625 C 10.125 -22.628906 11.359375 -25.925781 12.578125 -29.28125 C 13.796875 -32.644531 14.925781 -35.867188 15.96875 -38.953125 C 16.363281 -39.023438 16.703125 -39.0625 16.984375 -39.0625 C 17.421875 -39.0625 17.726562 -38.851562 17.90625 -38.4375 C 18.09375 -38.019531 18.347656 -37.367188 18.671875 -36.484375 C 19.671875 -33.722656 20.675781 -30.863281 21.6875 -27.90625 C 22.707031 -24.945312 23.78125 -21.945312 24.90625 -18.90625 C 25.507812 -18.988281 26.085938 -19.054688 26.640625 -19.109375 C 27.203125 -19.171875 27.742188 -19.242188 28.265625 -19.328125 C 28.628906 -18.921875 28.8125 -18.5 28.8125 -18.0625 C 28.8125 -17.5 28.507812 -17.085938 27.90625 -16.828125 C 27.300781 -16.566406 26.617188 -16.378906 25.859375 -16.265625 C 26.828125 -13.742188 27.828125 -11.179688 28.859375 -8.578125 C 29.898438 -5.984375 31.003906 -3.304688 32.171875 -0.546875 Z M 10.625 -18.1875 C 12.664062 -18.1875 14.625 -18.222656 16.5 -18.296875 C 18.382812 -18.378906 20.164062 -18.484375 21.84375 -18.609375 C 20.882812 -21.367188 19.941406 -24.085938 19.015625 -26.765625 C 18.097656 -29.441406 17.179688 -32.082031 16.265625 -34.6875 C 15.585938 -32.53125 14.765625 -30.019531 13.796875 -27.15625 C 12.835938 -24.289062 11.78125 -21.300781 10.625 -18.1875 Z M 10.625 -18.1875 "/></g></g></g><g fill="#ffb0be" fill-opacity="1"><g transform="translate(246.258412, 59.031632)"><g><path d="M 24.78125 0.421875 C 24.78125 -0.492188 24.769531 -1.660156 24.75 -3.078125 C 24.726562 -4.503906 24.695312 -6.078125 24.65625 -7.796875 C 24.625 -9.515625 24.585938 -11.304688 24.546875 -13.171875 C 24.503906 -15.035156 24.460938 -16.867188 24.421875 -18.671875 C 22.828125 -18.628906 21.1875 -18.566406 19.5 -18.484375 C 17.820312 -18.398438 16.191406 -18.316406 14.609375 -18.234375 C 13.035156 -18.160156 11.535156 -18.09375 10.109375 -18.03125 C 8.691406 -17.96875 7.398438 -17.9375 6.234375 -17.9375 C 6.234375 -16.144531 6.242188 -14.328125 6.265625 -12.484375 C 6.285156 -10.640625 6.296875 -8.757812 6.296875 -6.84375 C 6.296875 -5.882812 6.273438 -4.953125 6.234375 -4.046875 C 6.203125 -3.148438 6.113281 -2.359375 5.96875 -1.671875 C 5.832031 -0.992188 5.632812 -0.445312 5.375 -0.03125 C 5.113281 0.382812 4.78125 0.59375 4.375 0.59375 C 3.976562 0.59375 3.640625 0.515625 3.359375 0.359375 C 3.359375 -0.640625 3.347656 -1.925781 3.328125 -3.5 C 3.304688 -5.082031 3.273438 -6.804688 3.234375 -8.671875 C 3.203125 -10.535156 3.15625 -12.484375 3.09375 -14.515625 C 3.03125 -16.554688 2.976562 -18.523438 2.9375 -20.421875 C 2.894531 -22.328125 2.863281 -24.085938 2.84375 -25.703125 C 2.832031 -27.328125 2.828125 -28.660156 2.828125 -29.703125 C 2.828125 -30.910156 2.832031 -32.0625 2.84375 -33.15625 C 2.863281 -34.257812 2.929688 -35.21875 3.046875 -36.03125 C 3.171875 -36.851562 3.375 -37.503906 3.65625 -37.984375 C 3.9375 -38.460938 4.316406 -38.703125 4.796875 -38.703125 C 4.992188 -38.703125 5.203125 -38.679688 5.421875 -38.640625 C 5.648438 -38.609375 5.863281 -38.550781 6.0625 -38.46875 C 6.0625 -35.34375 6.082031 -32.238281 6.125 -29.15625 C 6.164062 -26.082031 6.203125 -22.90625 6.234375 -19.625 C 7.273438 -19.820312 8.546875 -20 10.046875 -20.15625 C 11.546875 -20.320312 13.113281 -20.472656 14.75 -20.609375 C 16.394531 -20.753906 18.054688 -20.882812 19.734375 -21 C 21.421875 -21.125 22.960938 -21.226562 24.359375 -21.3125 C 24.328125 -23.03125 24.300781 -24.609375 24.28125 -26.046875 C 24.257812 -27.484375 24.25 -28.679688 24.25 -29.640625 C 24.25 -30.847656 24.257812 -32 24.28125 -33.09375 C 24.300781 -34.195312 24.367188 -35.15625 24.484375 -35.96875 C 24.609375 -36.789062 24.804688 -37.441406 25.078125 -37.921875 C 25.359375 -38.410156 25.742188 -38.65625 26.234375 -38.65625 C 26.429688 -38.65625 26.640625 -38.632812 26.859375 -38.59375 C 27.078125 -38.550781 27.285156 -38.488281 27.484375 -38.40625 C 27.484375 -35.601562 27.503906 -32.890625 27.546875 -30.265625 C 27.585938 -27.648438 27.609375 -24.703125 27.609375 -21.421875 L 28.265625 -21.421875 C 29.148438 -21.421875 29.757812 -21.210938 30.09375 -20.796875 C 30.4375 -20.378906 30.609375 -19.945312 30.609375 -19.5 C 30.609375 -19.34375 30.566406 -19.101562 30.484375 -18.78125 C 30.046875 -18.78125 29.585938 -18.78125 29.109375 -18.78125 C 28.628906 -18.78125 28.148438 -18.757812 27.671875 -18.71875 C 27.671875 -16.800781 27.679688 -14.851562 27.703125 -12.875 C 27.722656 -10.894531 27.734375 -8.863281 27.734375 -6.78125 C 27.734375 -5.820312 27.710938 -4.890625 27.671875 -3.984375 C 27.628906 -3.085938 27.535156 -2.296875 27.390625 -1.609375 C 27.253906 -0.929688 27.054688 -0.382812 26.796875 0.03125 C 26.535156 0.445312 26.207031 0.65625 25.8125 0.65625 C 25.40625 0.65625 25.0625 0.578125 24.78125 0.421875 Z M 24.78125 0.421875 "/></g></g></g><g fill="#ffffff" fill-opacity="1"><g transform="translate(287.692842, 61.002143)"><g><path d="M -0.859375 -25.625 C -0.585938 -24.550781 -0.00390625 -23.710938 0.890625 -23.109375 C 1.785156 -22.503906 2.832031 -22.007812 4.03125 -21.625 C 5.226562 -21.238281 6.519531 -20.882812 7.90625 -20.5625 C 9.289062 -20.238281 10.597656 -19.8125 11.828125 -19.28125 C 13.066406 -18.75 14.164062 -18.039062 15.125 -17.15625 C 16.09375 -16.28125 16.769531 -15.078125 17.15625 -13.546875 C 17.550781 -11.992188 17.660156 -10.578125 17.484375 -9.296875 C 17.304688 -8.015625 16.898438 -6.890625 16.265625 -5.921875 C 15.628906 -4.960938 14.832031 -4.15625 13.875 -3.5 C 12.914062 -2.84375 11.832031 -2.359375 10.625 -2.046875 C 9.507812 -1.765625 8.375 -1.707031 7.21875 -1.875 C 6.0625 -2.039062 4.972656 -2.457031 3.953125 -3.125 C 2.941406 -3.789062 2.035156 -4.710938 1.234375 -5.890625 C 0.429688 -7.066406 -0.191406 -8.523438 -0.640625 -10.265625 C -0.773438 -10.804688 -0.875 -11.359375 -0.9375 -11.921875 C -1 -12.484375 -1.019531 -12.992188 -1 -13.453125 C -0.988281 -13.910156 -0.921875 -14.304688 -0.796875 -14.640625 C -0.679688 -14.984375 -0.53125 -15.175781 -0.34375 -15.21875 C 0.0078125 -15.3125 0.265625 -15.269531 0.421875 -15.09375 C 0.585938 -14.914062 0.71875 -14.65625 0.8125 -14.3125 C 0.96875 -13.675781 1.078125 -12.921875 1.140625 -12.046875 C 1.210938 -11.179688 1.347656 -10.367188 1.546875 -9.609375 C 1.890625 -8.242188 2.375 -7.09375 3 -6.15625 C 3.632812 -5.226562 4.347656 -4.492188 5.140625 -3.953125 C 5.941406 -3.410156 6.789062 -3.066406 7.6875 -2.921875 C 8.582031 -2.773438 9.476562 -2.816406 10.375 -3.046875 C 11.195312 -3.253906 11.96875 -3.617188 12.6875 -4.140625 C 13.414062 -4.671875 14.003906 -5.335938 14.453125 -6.140625 C 14.910156 -6.953125 15.207031 -7.890625 15.34375 -8.953125 C 15.476562 -10.023438 15.378906 -11.207031 15.046875 -12.5 C 14.765625 -13.613281 14.179688 -14.476562 13.296875 -15.09375 C 12.410156 -15.71875 11.359375 -16.238281 10.140625 -16.65625 C 8.921875 -17.070312 7.632812 -17.453125 6.28125 -17.796875 C 4.925781 -18.148438 3.617188 -18.601562 2.359375 -19.15625 C 1.097656 -19.71875 -0.0078125 -20.445312 -0.96875 -21.34375 C -1.925781 -22.25 -2.597656 -23.460938 -2.984375 -24.984375 C -3.304688 -26.242188 -3.367188 -27.390625 -3.171875 -28.421875 C -2.984375 -29.460938 -2.609375 -30.363281 -2.046875 -31.125 C -1.484375 -31.894531 -0.785156 -32.535156 0.046875 -33.046875 C 0.878906 -33.566406 1.769531 -33.953125 2.71875 -34.203125 C 3.675781 -34.441406 4.65625 -34.519531 5.65625 -34.4375 C 6.65625 -34.351562 7.59375 -34.078125 8.46875 -33.609375 C 9.351562 -33.140625 10.128906 -32.484375 10.796875 -31.640625 C 11.460938 -30.796875 11.960938 -29.722656 12.296875 -28.421875 C 12.503906 -27.609375 12.503906 -26.882812 12.296875 -26.25 C 12.085938 -25.625 11.648438 -25.226562 10.984375 -25.0625 C 10.734375 -24.988281 10.5 -24.976562 10.28125 -25.03125 C 10.269531 -26 10.144531 -26.945312 9.90625 -27.875 C 9.613281 -29.019531 9.207031 -29.96875 8.6875 -30.71875 C 8.175781 -31.476562 7.613281 -32.078125 7 -32.515625 C 6.382812 -32.953125 5.722656 -33.222656 5.015625 -33.328125 C 4.316406 -33.441406 3.632812 -33.414062 2.96875 -33.25 C 2.300781 -33.070312 1.675781 -32.765625 1.09375 -32.328125 C 0.507812 -31.890625 0.03125 -31.347656 -0.34375 -30.703125 C -0.71875 -30.054688 -0.960938 -29.300781 -1.078125 -28.4375 C -1.191406 -27.582031 -1.117188 -26.644531 -0.859375 -25.625 Z M -0.859375 -25.625 "/></g></g></g><g fill="#ffffff" fill-opacity="1"><g transform="translate(308.273429, 56.040058)"><g><path d="M 5.640625 -20.390625 C 6.148438 -20.460938 6.546875 -20.34375 6.828125 -20.03125 C 7.109375 -19.71875 7.28125 -19.335938 7.34375 -18.890625 C 7.363281 -18.734375 7.378906 -18.597656 7.390625 -18.484375 C 7.410156 -18.367188 7.398438 -18.226562 7.359375 -18.0625 C 7.191406 -18.0625 6.972656 -18.050781 6.703125 -18.03125 C 6.441406 -18.007812 6.234375 -17.988281 6.078125 -17.96875 C 5.617188 -17.90625 5.113281 -17.773438 4.5625 -17.578125 C 4.019531 -17.378906 3.445312 -17.179688 2.84375 -16.984375 L 3.21875 -14.34375 C 3.445312 -12.757812 3.710938 -11.203125 4.015625 -9.671875 C 4.316406 -8.140625 4.671875 -6.789062 5.078125 -5.625 C 5.492188 -4.46875 5.957031 -3.550781 6.46875 -2.875 C 6.976562 -2.195312 7.539062 -1.898438 8.15625 -1.984375 C 8.738281 -2.066406 9.191406 -2.332031 9.515625 -2.78125 C 9.847656 -3.238281 10.101562 -3.773438 10.28125 -4.390625 C 10.46875 -5.015625 10.597656 -5.6875 10.671875 -6.40625 C 10.753906 -7.125 10.816406 -7.78125 10.859375 -8.375 C 10.898438 -8.976562 10.957031 -9.484375 11.03125 -9.890625 C 11.101562 -10.304688 11.222656 -10.523438 11.390625 -10.546875 C 11.554688 -10.566406 11.675781 -10.335938 11.75 -9.859375 C 11.832031 -9.265625 11.863281 -8.492188 11.84375 -7.546875 C 11.832031 -6.609375 11.707031 -5.691406 11.46875 -4.796875 C 11.226562 -3.898438 10.851562 -3.101562 10.34375 -2.40625 C 9.832031 -1.707031 9.125 -1.296875 8.21875 -1.171875 C 7.113281 -1.015625 6.132812 -1.269531 5.28125 -1.9375 C 4.425781 -2.601562 3.6875 -3.535156 3.0625 -4.734375 C 2.445312 -5.941406 1.925781 -7.34375 1.5 -8.9375 C 1.070312 -10.53125 0.738281 -12.15625 0.5 -13.8125 L 0.15625 -16.296875 C -0.695312 -16.210938 -1.425781 -16.359375 -2.03125 -16.734375 C -2.644531 -17.109375 -3.046875 -17.960938 -3.234375 -19.296875 C -3.328125 -19.941406 -3.269531 -20.648438 -3.0625 -21.421875 C -2.863281 -22.191406 -2.566406 -22.929688 -2.171875 -23.640625 C -1.773438 -24.359375 -1.289062 -24.972656 -0.71875 -25.484375 C -0.144531 -25.992188 0.445312 -26.296875 1.0625 -26.390625 C 1.457031 -26.441406 1.796875 -26.378906 2.078125 -26.203125 C 2.085938 -26.128906 2.085938 -26.054688 2.078125 -25.984375 C 2.078125 -25.921875 2.082031 -25.859375 2.09375 -25.796875 C 2.09375 -25.222656 2.144531 -24.359375 2.25 -23.203125 C 2.363281 -22.054688 2.488281 -20.726562 2.625 -19.21875 C 3.15625 -19.457031 3.675781 -19.695312 4.1875 -19.9375 C 4.695312 -20.175781 5.179688 -20.328125 5.640625 -20.390625 Z M 0.125 -25.015625 C -0.21875 -24.796875 -0.546875 -24.46875 -0.859375 -24.03125 C -1.171875 -23.59375 -1.441406 -23.117188 -1.671875 -22.609375 C -1.898438 -22.097656 -2.070312 -21.554688 -2.1875 -20.984375 C -2.3125 -20.421875 -2.34375 -19.914062 -2.28125 -19.46875 C -2.1875 -18.8125 -1.984375 -18.375 -1.671875 -18.15625 C -1.359375 -17.945312 -0.972656 -17.875 -0.515625 -17.9375 C -0.296875 -17.96875 -0.125 -18.007812 0 -18.0625 C -0.101562 -19.289062 -0.144531 -20.484375 -0.125 -21.640625 C -0.113281 -22.804688 -0.03125 -23.929688 0.125 -25.015625 Z M 0.125 -25.015625 "/></g></g></g><g fill="#ffffff" fill-opacity="1"><g transform="translate(317.722553, 54.530623)"><g><path d="M 13.21875 -19.3125 C 13.269531 -18.3125 13.253906 -17.4375 13.171875 -16.6875 C 13.097656 -15.945312 13.023438 -15.171875 12.953125 -14.359375 C 12.878906 -13.546875 12.8125 -12.601562 12.75 -11.53125 C 12.6875 -10.46875 12.703125 -9.085938 12.796875 -7.390625 C 12.878906 -5.796875 13.0625 -4.429688 13.34375 -3.296875 C 13.632812 -2.171875 14.09375 -1.625 14.71875 -1.65625 C 15.46875 -1.6875 16.078125 -2.066406 16.546875 -2.796875 C 17.023438 -3.523438 17.410156 -4.316406 17.703125 -5.171875 C 18.003906 -6.023438 18.25 -6.804688 18.4375 -7.515625 C 18.632812 -8.222656 18.8125 -8.582031 18.96875 -8.59375 C 19.132812 -8.601562 19.222656 -8.492188 19.234375 -8.265625 C 19.253906 -7.867188 19.171875 -7.253906 18.984375 -6.421875 C 18.796875 -5.597656 18.507812 -4.75 18.125 -3.875 C 17.75 -3.007812 17.257812 -2.238281 16.65625 -1.5625 C 16.0625 -0.894531 15.335938 -0.539062 14.484375 -0.5 C 13.765625 -0.457031 13.171875 -0.6875 12.703125 -1.1875 C 12.234375 -1.695312 11.859375 -2.414062 11.578125 -3.34375 C 11.296875 -4.28125 11.078125 -5.410156 10.921875 -6.734375 C 10.773438 -8.054688 10.660156 -9.535156 10.578125 -11.171875 C 10.460938 -9.785156 10.296875 -8.445312 10.078125 -7.15625 C 9.859375 -5.875 9.59375 -4.742188 9.28125 -3.765625 C 8.976562 -2.796875 8.617188 -2.015625 8.203125 -1.421875 C 7.796875 -0.828125 7.316406 -0.515625 6.765625 -0.484375 C 5.753906 -0.429688 4.90625 -0.734375 4.21875 -1.390625 C 3.53125 -2.046875 2.96875 -2.910156 2.53125 -3.984375 C 2.09375 -5.066406 1.765625 -6.28125 1.546875 -7.625 C 1.335938 -8.976562 1.195312 -10.328125 1.125 -11.671875 C 1.070312 -12.679688 1.078125 -13.65625 1.140625 -14.59375 C 1.210938 -15.53125 1.328125 -16.351562 1.484375 -17.0625 C 1.648438 -17.769531 1.867188 -18.34375 2.140625 -18.78125 C 2.410156 -19.226562 2.742188 -19.460938 3.140625 -19.484375 C 3.367188 -19.492188 3.570312 -19.457031 3.75 -19.375 C 3.9375 -19.300781 4.179688 -19.195312 4.484375 -19.0625 C 4.179688 -17.832031 3.976562 -16.4375 3.875 -14.875 C 3.78125 -13.3125 3.785156 -11.546875 3.890625 -9.578125 C 3.941406 -8.535156 4.03125 -7.535156 4.15625 -6.578125 C 4.289062 -5.617188 4.472656 -4.769531 4.703125 -4.03125 C 4.941406 -3.289062 5.234375 -2.695312 5.578125 -2.25 C 5.929688 -1.8125 6.335938 -1.609375 6.796875 -1.640625 C 7.191406 -1.660156 7.535156 -1.945312 7.828125 -2.5 C 8.128906 -3.050781 8.390625 -3.773438 8.609375 -4.671875 C 8.828125 -5.566406 9.015625 -6.570312 9.171875 -7.6875 C 9.328125 -8.8125 9.472656 -9.953125 9.609375 -11.109375 C 9.710938 -12.234375 9.832031 -13.332031 9.96875 -14.40625 C 10.113281 -15.476562 10.28125 -16.429688 10.46875 -17.265625 C 10.65625 -18.109375 10.875 -18.789062 11.125 -19.3125 C 11.375 -19.84375 11.695312 -20.117188 12.09375 -20.140625 C 12.8125 -20.179688 13.1875 -19.90625 13.21875 -19.3125 Z M 13.21875 -19.3125 "/></g></g></g><g fill="#ffffff" fill-opacity="1"><g transform="translate(333.302603, 53.655925)"><g><path d="M 18.828125 -23.859375 C 18.753906 -22.742188 18.617188 -21.640625 18.421875 -20.546875 C 18.222656 -19.460938 17.953125 -18.429688 17.609375 -17.453125 C 17.273438 -16.484375 16.882812 -15.582031 16.4375 -14.75 C 15.988281 -13.925781 15.5 -13.238281 14.96875 -12.6875 C 14.863281 -10.988281 14.773438 -9.359375 14.703125 -7.796875 C 14.640625 -6.242188 14.617188 -4.875 14.640625 -3.6875 C 14.671875 -2.507812 14.757812 -1.5625 14.90625 -0.84375 C 15.0625 -0.132812 15.300781 0.226562 15.625 0.25 C 16.3125 0.289062 16.941406 -0.0195312 17.515625 -0.6875 C 18.085938 -1.351562 18.578125 -2.09375 18.984375 -2.90625 C 19.398438 -3.71875 19.765625 -4.460938 20.078125 -5.140625 C 20.398438 -5.828125 20.65625 -6.164062 20.84375 -6.15625 C 21.007812 -6.144531 21.085938 -6.039062 21.078125 -5.84375 C 21.035156 -5.25 20.859375 -4.53125 20.546875 -3.6875 C 20.234375 -2.84375 19.816406 -2.035156 19.296875 -1.265625 C 18.773438 -0.492188 18.164062 0.144531 17.46875 0.65625 C 16.78125 1.175781 16.0625 1.410156 15.3125 1.359375 C 14.882812 1.335938 14.46875 1.265625 14.0625 1.140625 C 13.664062 1.015625 13.3125 0.757812 13 0.375 C 12.695312 0 12.453125 -0.53125 12.265625 -1.21875 C 12.078125 -1.90625 12.003906 -2.816406 12.046875 -3.953125 C 11.296875 -2.367188 10.476562 -1.222656 9.59375 -0.515625 C 8.71875 0.179688 7.804688 0.5 6.859375 0.4375 C 5.878906 0.375 5.054688 0.0820312 4.390625 -0.4375 C 3.722656 -0.957031 3.179688 -1.628906 2.765625 -2.453125 C 2.359375 -3.285156 2.070312 -4.226562 1.90625 -5.28125 C 1.75 -6.34375 1.707031 -7.429688 1.78125 -8.546875 C 1.863281 -9.859375 2.09375 -11.15625 2.46875 -12.4375 C 2.84375 -13.71875 3.347656 -14.863281 3.984375 -15.875 C 4.628906 -16.894531 5.382812 -17.703125 6.25 -18.296875 C 7.125 -18.890625 8.085938 -19.15625 9.140625 -19.09375 C 9.691406 -19.0625 10.257812 -18.890625 10.84375 -18.578125 C 11.4375 -18.265625 12.039062 -17.757812 12.65625 -17.0625 C 12.851562 -19.40625 13.070312 -21.691406 13.3125 -23.921875 C 13.5625 -26.160156 13.832031 -28.390625 14.125 -30.609375 C 14.238281 -31.285156 14.398438 -31.75 14.609375 -32 C 14.828125 -32.25 15.164062 -32.359375 15.625 -32.328125 C 16.28125 -32.285156 16.828125 -32.023438 17.265625 -31.546875 C 17.710938 -31.078125 18.0625 -30.457031 18.3125 -29.6875 C 18.5625 -28.914062 18.726562 -28.03125 18.8125 -27.03125 C 18.894531 -26.03125 18.898438 -24.972656 18.828125 -23.859375 Z M 12 -11.328125 C 10.851562 -11.398438 9.9375 -12.023438 9.25 -13.203125 C 8.570312 -14.390625 8.257812 -15.914062 8.3125 -17.78125 C 7.769531 -17.519531 7.28125 -17.054688 6.84375 -16.390625 C 6.40625 -15.734375 6.023438 -14.960938 5.703125 -14.078125 C 5.390625 -13.191406 5.125 -12.238281 4.90625 -11.21875 C 4.695312 -10.207031 4.5625 -9.195312 4.5 -8.1875 C 4.4375 -7.226562 4.441406 -6.300781 4.515625 -5.40625 C 4.597656 -4.519531 4.75 -3.734375 4.96875 -3.046875 C 5.1875 -2.367188 5.476562 -1.8125 5.84375 -1.375 C 6.207031 -0.9375 6.671875 -0.703125 7.234375 -0.671875 C 7.921875 -0.628906 8.539062 -0.859375 9.09375 -1.359375 C 9.644531 -1.867188 10.132812 -2.507812 10.5625 -3.28125 C 11 -4.0625 11.34375 -4.925781 11.59375 -5.875 C 11.851562 -6.832031 12.007812 -7.738281 12.0625 -8.59375 L 12.234375 -11.328125 Z M 16.25 -31.390625 C 16.21875 -30.898438 16.15625 -30.066406 16.0625 -28.890625 C 15.976562 -27.722656 15.882812 -26.351562 15.78125 -24.78125 C 15.6875 -23.21875 15.570312 -21.515625 15.4375 -19.671875 C 15.300781 -17.828125 15.175781 -15.972656 15.0625 -14.109375 C 15.851562 -15.203125 16.484375 -16.625 16.953125 -18.375 C 17.421875 -20.132812 17.71875 -21.953125 17.84375 -23.828125 C 17.894531 -24.703125 17.90625 -25.554688 17.875 -26.390625 C 17.851562 -27.234375 17.769531 -27.984375 17.625 -28.640625 C 17.488281 -29.304688 17.3125 -29.875 17.09375 -30.34375 C 16.882812 -30.820312 16.601562 -31.171875 16.25 -31.390625 Z M 12.296875 -12.3125 C 12.328125 -12.863281 12.359375 -13.410156 12.390625 -13.953125 C 12.429688 -14.492188 12.488281 -15.039062 12.5625 -15.59375 C 11.46875 -17.164062 10.429688 -17.984375 9.453125 -18.046875 C 9.390625 -18.054688 9.332031 -18.050781 9.28125 -18.03125 C 9.226562 -18.019531 9.171875 -18.019531 9.109375 -18.03125 C 9.097656 -17.28125 9.148438 -16.5625 9.265625 -15.875 C 9.390625 -15.195312 9.582031 -14.601562 9.84375 -14.09375 C 10.101562 -13.582031 10.421875 -13.164062 10.796875 -12.84375 C 11.179688 -12.519531 11.601562 -12.34375 12.0625 -12.3125 Z M 12.296875 -12.3125 "/></g></g></g><g fill="#ffffff" fill-opacity="1"><g transform="translate(350.158242, 54.914563)"><g><path d="M 5.984375 -9.53125 C 5.796875 -8.257812 5.664062 -7.0625 5.59375 -5.9375 C 5.53125 -4.820312 5.539062 -3.820312 5.625 -2.9375 C 5.707031 -2.0625 5.875 -1.351562 6.125 -0.8125 C 6.382812 -0.28125 6.738281 0.015625 7.1875 0.078125 C 7.894531 0.179688 8.492188 -0.132812 8.984375 -0.875 C 9.484375 -1.613281 9.914062 -2.441406 10.28125 -3.359375 C 10.644531 -4.285156 10.957031 -5.132812 11.21875 -5.90625 C 11.488281 -6.675781 11.753906 -7.039062 12.015625 -7 C 12.203125 -6.96875 12.269531 -6.789062 12.21875 -6.46875 C 12.132812 -5.882812 11.96875 -5.15625 11.71875 -4.28125 C 11.46875 -3.40625 11.128906 -2.5625 10.703125 -1.75 C 10.273438 -0.945312 9.753906 -0.273438 9.140625 0.265625 C 8.523438 0.804688 7.816406 1.019531 7.015625 0.90625 C 6.109375 0.769531 5.375 0.316406 4.8125 -0.453125 C 4.25 -1.234375 3.835938 -2.207031 3.578125 -3.375 C 3.316406 -4.539062 3.191406 -5.8125 3.203125 -7.1875 C 3.210938 -8.5625 3.316406 -9.929688 3.515625 -11.296875 C 3.671875 -12.367188 3.875 -13.375 4.125 -14.3125 C 4.382812 -15.25 4.675781 -16.046875 5 -16.703125 C 5.332031 -17.359375 5.691406 -17.875 6.078125 -18.25 C 6.460938 -18.625 6.867188 -18.78125 7.296875 -18.71875 C 7.460938 -18.695312 7.628906 -18.65625 7.796875 -18.59375 C 7.972656 -18.539062 8.140625 -18.460938 8.296875 -18.359375 C 7.210938 -15.585938 6.441406 -12.644531 5.984375 -9.53125 Z M 10.578125 -24.4375 C 10.535156 -24.113281 10.421875 -23.78125 10.234375 -23.4375 C 10.046875 -23.101562 9.816406 -22.800781 9.546875 -22.53125 C 9.285156 -22.257812 8.976562 -22.050781 8.625 -21.90625 C 8.269531 -21.757812 7.894531 -21.710938 7.5 -21.765625 C 7.050781 -21.835938 6.738281 -22.023438 6.5625 -22.328125 C 6.394531 -22.640625 6.34375 -23.003906 6.40625 -23.421875 C 6.457031 -23.753906 6.578125 -24.085938 6.765625 -24.421875 C 6.953125 -24.753906 7.175781 -25.046875 7.4375 -25.296875 C 7.707031 -25.554688 8.019531 -25.757812 8.375 -25.90625 C 8.726562 -26.050781 9.113281 -26.09375 9.53125 -26.03125 C 9.988281 -25.96875 10.289062 -25.789062 10.4375 -25.5 C 10.59375 -25.21875 10.640625 -24.863281 10.578125 -24.4375 Z M 10.578125 -24.4375 "/></g></g></g><g fill="#ffffff" fill-opacity="1"><g transform="translate(356.981877, 55.715878)"><g><path d="M 22.359375 -8.28125 C 22.742188 -8.195312 22.875 -7.867188 22.75 -7.296875 C 22.644531 -6.878906 22.378906 -6.3125 21.953125 -5.59375 C 21.523438 -4.875 20.96875 -4.175781 20.28125 -3.5 C 19.59375 -2.820312 18.785156 -2.257812 17.859375 -1.8125 C 16.929688 -1.375 15.890625 -1.222656 14.734375 -1.359375 C 13.847656 -0.160156 12.828125 0.75 11.671875 1.375 C 10.523438 2.007812 9.328125 2.179688 8.078125 1.890625 C 7.242188 1.691406 6.472656 1.265625 5.765625 0.609375 C 5.066406 -0.0351562 4.515625 -0.890625 4.109375 -1.953125 C 3.710938 -3.023438 3.476562 -4.285156 3.40625 -5.734375 C 3.34375 -7.179688 3.523438 -8.8125 3.953125 -10.625 C 4.179688 -11.613281 4.484375 -12.523438 4.859375 -13.359375 C 5.242188 -14.191406 5.660156 -14.910156 6.109375 -15.515625 C 6.566406 -16.117188 7.054688 -16.5625 7.578125 -16.84375 C 8.097656 -17.125 8.617188 -17.203125 9.140625 -17.078125 C 9.515625 -16.992188 9.832031 -16.835938 10.09375 -16.609375 C 9.351562 -15.929688 8.664062 -15.003906 8.03125 -13.828125 C 7.40625 -12.648438 6.910156 -11.28125 6.546875 -9.71875 C 6.179688 -8.125 5.96875 -6.6875 5.90625 -5.40625 C 5.84375 -4.125 5.90625 -3.019531 6.09375 -2.09375 C 6.28125 -1.175781 6.5625 -0.453125 6.9375 0.078125 C 7.3125 0.617188 7.753906 0.953125 8.265625 1.078125 C 9.066406 1.265625 9.847656 1.054688 10.609375 0.453125 C 11.367188 -0.140625 12.0625 -0.96875 12.6875 -2.03125 C 11.945312 -2.5 11.34375 -3.140625 10.875 -3.953125 C 10.40625 -4.773438 10.0625 -5.671875 9.84375 -6.640625 C 9.625 -7.617188 9.507812 -8.628906 9.5 -9.671875 C 9.488281 -10.722656 9.585938 -11.695312 9.796875 -12.59375 C 10.078125 -13.8125 10.546875 -14.785156 11.203125 -15.515625 C 11.867188 -16.242188 12.710938 -16.488281 13.734375 -16.25 C 14.679688 -16.03125 15.46875 -15.628906 16.09375 -15.046875 C 16.71875 -14.460938 17.164062 -13.757812 17.4375 -12.9375 C 17.71875 -12.125 17.863281 -11.226562 17.875 -10.25 C 17.882812 -9.28125 17.769531 -8.28125 17.53125 -7.25 C 17.320312 -6.394531 17.035156 -5.546875 16.671875 -4.703125 C 16.304688 -3.859375 15.890625 -3.054688 15.421875 -2.296875 C 16.390625 -2.335938 17.238281 -2.6875 17.96875 -3.34375 C 18.695312 -4 19.34375 -4.703125 19.90625 -5.453125 C 20.46875 -6.210938 20.941406 -6.890625 21.328125 -7.484375 C 21.722656 -8.085938 22.066406 -8.351562 22.359375 -8.28125 Z M 14.828125 -7.578125 C 15.046875 -8.503906 15.191406 -9.410156 15.265625 -10.296875 C 15.335938 -11.191406 15.332031 -11.992188 15.25 -12.703125 C 15.164062 -13.410156 14.972656 -14 14.671875 -14.46875 C 14.378906 -14.945312 13.976562 -15.242188 13.46875 -15.359375 C 13.050781 -15.453125 12.679688 -15.242188 12.359375 -14.734375 C 12.035156 -14.222656 11.78125 -13.554688 11.59375 -12.734375 C 11.40625 -11.960938 11.285156 -11.097656 11.234375 -10.140625 C 11.179688 -9.179688 11.21875 -8.25 11.34375 -7.34375 C 11.46875 -6.4375 11.671875 -5.582031 11.953125 -4.78125 C 12.242188 -3.988281 12.660156 -3.382812 13.203125 -2.96875 C 13.921875 -4.445312 14.460938 -5.984375 14.828125 -7.578125 Z M 14.828125 -7.578125 "/></g></g></g></svg>