<svg xmlns="http://www.w3.org/2000/svg" xmlns:xlink="http://www.w3.org/1999/xlink" width="500" zoomAndPan="magnify" viewBox="0 0 375 374.999991" height="500" preserveAspectRatio="xMidYMid meet" version="1.0"><defs><clipPath id="fa0e343177"><path d="M 0 5 L 375 5 L 375 359 L 0 359 Z M 0 5 " clip-rule="nonzero"/></clipPath><clipPath id="6de0cf5a17"><path d="M -4.921875 73.492188 L 367.402344 0.03125 L 426.777344 300.980469 L 54.457031 374.4375 Z M -4.921875 73.492188 " clip-rule="nonzero"/></clipPath><clipPath id="bfc5b22490"><path d="M -4.921875 73.492188 L 367.402344 0.03125 L 426.777344 300.980469 L 54.457031 374.4375 Z M -4.921875 73.492188 " clip-rule="nonzero"/></clipPath></defs><g clip-path="url(#fa0e343177)"><g clip-path="url(#6de0cf5a17)"><g clip-path="url(#bfc5b22490)"><path fill="#ffb0be" d="M 195.164062 185.097656 C 238.875 198.839844 323.054688 96.574219 360.15625 51.503906 L 363.234375 47.761719 C 350.65625 50.640625 330.292969 55.625 307.191406 62.402344 C 292.277344 84.859375 276.230469 104.507812 259.128906 119.683594 C 233.921875 142.054688 206.410156 154.738281 176.824219 152.507812 C 170.949219 152.0625 165.449219 150.914062 160.398438 149.242188 C 160.113281 153.828125 161.050781 158.507812 163.402344 163.269531 C 166.460938 169.464844 171.886719 175.851562 180.078125 182.417969 C 200.875 199.082031 211.316406 222.007812 212.941406 246.035156 C 214.683594 271.792969 206.265625 298.808594 189.601562 320.664062 L 177.394531 336.675781 L 185.640625 318.304688 C 195.503906 296.332031 195.882812 278.703125 189.019531 262.847656 C 182.070312 246.796875 167.6875 232.363281 148.171875 217.015625 C 106.296875 184.074219 106.484375 152.339844 127.960938 123.605469 C 126.511719 120.804688 125.546875 118.023438 125.101562 115.378906 C 124.839844 113.839844 124.609375 112.425781 124.378906 111.027344 C 123.101562 103.265625 121.90625 95.976562 119.996094 89.824219 C 117.679688 82.355469 113.667969 77.445312 108.804688 74.59375 C 105.445312 72.621094 101.652344 71.601562 97.714844 71.378906 C 93.710938 71.148438 89.542969 71.746094 85.503906 72.996094 C 76.5625 75.769531 68.367188 81.726562 64.046875 89.089844 L 63.351562 90.269531 L 61.992188 90.238281 C 52.542969 90.019531 42.554688 91.0625 32.855469 93.101562 C 44.15625 93.113281 54.496094 95.65625 63.21875 100.730469 C 73.394531 106.644531 81.347656 115.960938 86.046875 128.679688 C 88.429688 135.117188 89.96875 142.429688 90.53125 150.609375 C 90.753906 153.8125 90.835938 156.796875 90.921875 159.820312 C 91.085938 165.597656 91.253906 171.503906 92.28125 177.933594 C 96.894531 206.839844 115.71875 218.167969 134.304688 229.347656 C 155.800781 242.285156 176.996094 255.035156 177.769531 292.753906 C 178.40625 323.886719 163.707031 343.898438 147.648438 352.851562 C 137.933594 358.269531 127.636719 359.65625 119.777344 357.058594 C 111.546875 354.335938 105.972656 347.441406 106.222656 336.40625 C 106.582031 320.546875 119.5625 295.621094 155.839844 261.929688 L 158.996094 265.332031 C 123.78125 298.035156 111.195312 321.722656 110.859375 336.511719 C 110.664062 345.1875 114.929688 350.574219 121.226562 352.65625 C 127.890625 354.859375 136.804688 353.574219 145.382812 348.792969 C 160.171875 340.542969 173.710938 321.953125 173.117188 292.859375 C 172.394531 257.679688 152.300781 245.589844 131.917969 233.324219 C 112.410156 221.585938 92.652344 209.699219 87.695312 178.667969 C 86.613281 171.890625 86.445312 165.859375 86.277344 159.957031 C 86.191406 156.875 86.105469 153.828125 85.902344 150.929688 C 85.371094 143.207031 83.925781 136.324219 81.691406 130.28125 C 77.390625 118.644531 70.140625 110.132812 60.878906 104.75 C 46.058594 96.136719 23.402344 95.234375 0.691406 101.640625 C 15.183594 92.660156 38.683594 85.335938 60.761719 85.578125 C 65.816406 77.757812 74.613281 71.507812 84.128906 68.558594 C 88.664062 67.152344 93.382812 66.488281 97.96875 66.746094 C 102.625 67.011719 107.128906 68.226562 111.148438 70.585938 C 116.976562 74.007812 121.746094 79.773438 124.433594 88.449219 C 126.425781 94.867188 127.652344 102.328125 128.957031 110.273438 C 129.199219 111.738281 129.445312 113.222656 129.675781 114.605469 C 129.945312 116.199219 130.441406 117.855469 131.15625 119.542969 C 170.914062 71.359375 270.105469 32.714844 322.679688 12.230469 L 322.6875 12.230469 C 327.5625 10.328125 332.085938 8.566406 334.289062 7.699219 L 340.054688 5.425781 L 337.207031 10.925781 C 328.953125 26.863281 320.238281 42.167969 311.082031 56.441406 C 336.726562 49.082031 358.386719 44.035156 368.851562 41.75 L 375.445312 40.3125 L 371.128906 45.5 C 368.792969 48.3125 366.390625 51.230469 363.742188 54.449219 C 326.03125 100.261719 240.46875 204.203125 193.773438 189.527344 Z M 300.1875 64.488281 C 272.894531 72.738281 242.605469 83.347656 217.128906 95.828125 C 197.425781 105.484375 180.65625 116.226562 170.515625 127.800781 C 165.769531 133.214844 162.5 138.816406 161.105469 144.578125 C 166.019531 146.277344 171.398438 147.441406 177.171875 147.875 C 205.371094 150.003906 231.757812 137.769531 256.050781 116.210938 C 271.652344 102.367188 286.386719 84.6875 300.1875 64.488281 Z M 215.082031 91.652344 C 242.484375 78.226562 275.390625 66.957031 304.25 58.433594 C 313.324219 44.652344 321.976562 29.808594 330.195312 14.296875 C 328.121094 15.105469 326.28125 15.824219 324.367188 16.570312 C 271.621094 37.121094 171.59375 76.09375 133.515625 124.007812 C 136.371094 128.523438 140.65625 133.039062 146.140625 136.933594 C 149.28125 139.160156 152.808594 141.175781 156.679688 142.859375 C 158.339844 136.609375 161.917969 130.566406 167.019531 124.742188 C 177.617188 112.648438 194.886719 101.550781 215.082031 91.652344 Z M 159.222656 165.316406 C 156.21875 159.234375 155.179688 153.304688 155.804688 147.53125 C 151.246094 145.636719 147.109375 143.316406 143.457031 140.726562 C 138.0625 136.898438 133.707031 132.460938 130.5625 127.917969 C 111.84375 154.136719 112.585938 183.113281 151.050781 213.367188 C 171.132812 229.164062 185.984375 244.125 193.292969 261.003906 C 198.566406 273.1875 199.898438 286.269531 196.425781 301.230469 C 205.34375 283.96875 209.5625 264.816406 208.3125 246.355469 C 206.773438 223.570312 196.882812 201.835938 177.179688 186.050781 C 168.425781 179.035156 162.582031 172.113281 159.222656 165.316406 Z M 159.222656 165.316406 " fill-opacity="1" fill-rule="nonzero"/></g></g></g></svg>